<svg width="360" height="149" viewBox="0 0 360 149" fill="none" xmlns="http://www.w3.org/2000/svg">
<path d="M4.2 37.2C5.6 37.2667 7.43333 37.3333 9.7 37.4C11.9667 37.4667 14.2 37.5 16.4 37.5C19.5333 37.5 22.5333 37.4667 25.4 37.4C28.2667 37.3333 30.3 37.3 31.5 37.3C38.5 37.3 43.7667 38.7667 47.3 41.7C50.8333 44.6333 52.6 48.4 52.6 53C52.6 55.3333 52.1 57.6333 51.1 59.9C50.1667 62.1 48.5667 64.1333 46.3 66C44.1 67.8 41.1333 69.2667 37.4 70.4V70.6C42.6667 71.2667 46.7667 72.5333 49.7 74.4C52.7 76.2 54.8 78.3333 56 80.8C57.2 83.2667 57.8 85.8667 57.8 88.6C57.8 94.2667 55.6667 98.9333 51.4 102.6C47.2 106.2 41.3333 108 33.8 108C32.3333 108 30.1333 107.967 27.2 107.9C24.2667 107.767 20.7333 107.7 16.6 107.7C14.2667 107.7 11.9667 107.733 9.7 107.8C7.43333 107.8 5.6 107.867 4.2 108V106C6.46667 105.867 8.16667 105.6 9.3 105.2C10.5 104.8 11.3 104 11.7 102.8C12.1 101.6 12.3 99.8 12.3 97.4V47.8C12.3 45.3333 12.1 43.5333 11.7 42.4C11.3 41.2 10.5 40.4 9.3 40C8.16667 39.5333 6.46667 39.2667 4.2 39.2V37.2ZM29 39.2C25.9333 39.2 23.9333 39.7667 23 40.9C22.0667 42.0333 21.6 44.3333 21.6 47.8V97.4C21.6 100.867 22.0667 103.133 23 104.2C24 105.2 26.0333 105.7 29.1 105.7C35.6333 105.7 40.3667 104.2 43.3 101.2C46.3 98.1333 47.8 93.8 47.8 88.2C47.8 83.0667 46.4 79.1 43.6 76.3C40.8667 73.5 36.3333 72.1 30 72.1H19.7C19.7 72.1 19.7 71.8333 19.7 71.3C19.7 70.7 19.7 70.4 19.7 70.4H28.3C32.2333 70.4 35.2667 69.6667 37.4 68.2C39.5333 66.6667 41 64.6667 41.8 62.2C42.6 59.6667 43 56.9667 43 54.1C43 49.1667 41.9 45.4667 39.7 43C37.5667 40.4667 34 39.2 29 39.2ZM113.921 36.7L138.321 99.6C139.321 102.133 140.454 103.833 141.721 104.7C142.988 105.5 144.154 105.933 145.221 106V108C143.888 107.867 142.254 107.8 140.321 107.8C138.388 107.733 136.454 107.7 134.521 107.7C131.921 107.7 129.488 107.733 127.221 107.8C124.954 107.8 123.121 107.867 121.721 108V106C125.121 105.867 127.288 105.3 128.221 104.3C129.154 103.233 128.954 101 127.621 97.6L109.021 47.9L110.621 46.6L93.2211 91.8C91.8211 95.4 91.1544 98.2333 91.2211 100.3C91.2878 102.3 92.0544 103.733 93.5211 104.6C94.9878 105.467 97.1211 105.933 99.9211 106V108C98.0544 107.867 96.0878 107.8 94.0211 107.8C92.0211 107.733 90.1544 107.7 88.4211 107.7C86.7544 107.7 85.3211 107.733 84.1211 107.8C82.9878 107.8 81.9211 107.867 80.9211 108V106C82.2544 105.667 83.6211 104.9 85.0211 103.7C86.4211 102.433 87.6878 100.3 88.8211 97.3L112.321 36.7C112.588 36.7 112.854 36.7 113.121 36.7C113.388 36.7 113.654 36.7 113.921 36.7ZM126.121 79.2V81.2H96.3211L97.3211 79.2H126.121ZM192.356 37.2V39.2C190.09 39.2667 188.356 39.5333 187.156 40C186.023 40.4 185.256 41.2 184.856 42.4C184.456 43.5333 184.256 45.3333 184.256 47.8V97.4C184.256 99.8 184.456 101.6 184.856 102.8C185.256 104 186.023 104.8 187.156 105.2C188.356 105.533 190.09 105.7 192.356 105.7H199.656C203.856 105.7 207.023 105.1 209.156 103.9C211.356 102.7 212.923 100.733 213.856 98C214.856 95.2667 215.59 91.6 216.056 87H218.356C218.156 89.0667 218.056 91.8 218.056 95.2C218.056 96.4667 218.09 98.3 218.156 100.7C218.29 103.033 218.49 105.467 218.756 108C215.356 107.867 211.523 107.8 207.256 107.8C202.99 107.733 199.19 107.7 195.856 107.7C193.856 107.7 191.19 107.7 187.856 107.7C184.59 107.7 181.09 107.733 177.356 107.8C173.623 107.8 170.123 107.867 166.856 108V106C169.123 105.867 170.823 105.6 171.956 105.2C173.156 104.8 173.956 104 174.356 102.8C174.756 101.6 174.956 99.8 174.956 97.4V47.8C174.956 45.3333 174.756 43.5333 174.356 42.4C173.956 41.2 173.156 40.4 171.956 40C170.823 39.5333 169.123 39.2667 166.856 39.2V37.2C168.256 37.2667 170.09 37.3333 172.356 37.4C174.623 37.4667 177.056 37.5 179.656 37.5C181.99 37.5 184.29 37.4667 186.556 37.4C188.89 37.3333 190.823 37.2667 192.356 37.2ZM271.145 37.2V39.2C268.879 39.2667 267.145 39.5333 265.945 40C264.812 40.4 264.045 41.2 263.645 42.4C263.245 43.5333 263.045 45.3333 263.045 47.8V97.4C263.045 99.8 263.245 101.6 263.645 102.8C264.045 104 264.812 104.8 265.945 105.2C267.145 105.6 268.879 105.867 271.145 106V108C269.612 107.867 267.679 107.8 265.345 107.8C263.079 107.733 260.779 107.7 258.445 107.7C255.845 107.7 253.412 107.733 251.145 107.8C248.879 107.8 247.045 107.867 245.645 108V106C247.912 105.867 249.612 105.6 250.745 105.2C251.945 104.8 252.745 104 253.145 102.8C253.545 101.6 253.745 99.8 253.745 97.4V47.8C253.745 45.3333 253.545 43.5333 253.145 42.4C252.745 41.2 251.945 40.4 250.745 40C249.612 39.5333 247.912 39.2667 245.645 39.2V37.2C247.045 37.2667 248.879 37.3333 251.145 37.4C253.412 37.4667 255.845 37.5 258.445 37.5C260.779 37.5 263.079 37.4667 265.345 37.4C267.679 37.3333 269.612 37.2667 271.145 37.2ZM359.032 37.2V39.2C357.765 39.4667 356.399 40.2333 354.932 41.5C353.532 42.7667 352.265 44.9 351.132 47.9L327.632 108.5C327.499 108.5 327.365 108.5 327.232 108.5C327.099 108.5 326.965 108.5 326.832 108.5C326.699 108.5 326.565 108.5 326.432 108.5C326.299 108.5 326.165 108.5 326.032 108.5L301.632 45.6C300.632 43.0667 299.499 41.4 298.232 40.6C296.965 39.7333 295.799 39.2667 294.732 39.2V37.2C296.065 37.2667 297.699 37.3333 299.632 37.4C301.632 37.4667 303.565 37.5 305.432 37.5C308.032 37.5 310.465 37.4667 312.732 37.4C314.999 37.3333 316.832 37.2667 318.232 37.2V39.2C314.832 39.3333 312.665 39.9333 311.732 41C310.865 42 311.065 44.2 312.332 47.6L330.932 96.9L329.332 98.6L346.732 53.4C348.132 49.8 348.799 47 348.732 45C348.665 42.9333 347.899 41.4667 346.432 40.6C344.965 39.7333 342.832 39.2667 340.032 39.2V37.2C341.965 37.2667 343.932 37.3333 345.932 37.4C347.932 37.4667 349.799 37.5 351.532 37.5C353.265 37.5 354.699 37.4667 355.832 37.4C356.965 37.3333 358.032 37.2667 359.032 37.2Z" fill="white"/>
<path d="M112.84 144L109.64 139.5C109.28 139.54 108.907 139.56 108.52 139.56H104.76V144H103.28V130H108.52C110.307 130 111.707 130.427 112.72 131.28C113.733 132.133 114.24 133.307 114.24 134.8C114.24 135.893 113.96 136.82 113.4 137.58C112.853 138.327 112.067 138.867 111.04 139.2L114.46 144H112.84ZM108.48 138.3C109.867 138.3 110.927 137.993 111.66 137.38C112.393 136.767 112.76 135.907 112.76 134.8C112.76 133.667 112.393 132.8 111.66 132.2C110.927 131.587 109.867 131.28 108.48 131.28H104.76V138.3H108.48ZM132.233 142.72V144H122.333V130H131.933V131.28H123.813V136.26H131.053V137.52H123.813V142.72H132.233ZM144.172 144.12C143.132 144.12 142.132 143.953 141.172 143.62C140.225 143.287 139.492 142.847 138.972 142.3L139.552 141.16C140.059 141.667 140.732 142.08 141.572 142.4C142.412 142.707 143.279 142.86 144.172 142.86C145.425 142.86 146.365 142.633 146.992 142.18C147.619 141.713 147.932 141.113 147.932 140.38C147.932 139.82 147.759 139.373 147.412 139.04C147.079 138.707 146.665 138.453 146.172 138.28C145.679 138.093 144.992 137.893 144.112 137.68C143.059 137.413 142.219 137.16 141.592 136.92C140.965 136.667 140.425 136.287 139.972 135.78C139.532 135.273 139.312 134.587 139.312 133.72C139.312 133.013 139.499 132.373 139.872 131.8C140.245 131.213 140.819 130.747 141.592 130.4C142.365 130.053 143.325 129.88 144.472 129.88C145.272 129.88 146.052 129.993 146.812 130.22C147.585 130.433 148.252 130.733 148.812 131.12L148.312 132.3C147.725 131.913 147.099 131.627 146.432 131.44C145.765 131.24 145.112 131.14 144.472 131.14C143.245 131.14 142.319 131.38 141.692 131.86C141.079 132.327 140.772 132.933 140.772 133.68C140.772 134.24 140.939 134.693 141.272 135.04C141.619 135.373 142.045 135.633 142.552 135.82C143.072 135.993 143.765 136.187 144.632 136.4C145.659 136.653 146.485 136.907 147.112 137.16C147.752 137.4 148.292 137.773 148.732 138.28C149.172 138.773 149.392 139.447 149.392 140.3C149.392 141.007 149.199 141.653 148.812 142.24C148.439 142.813 147.859 143.273 147.072 143.62C146.285 143.953 145.319 144.12 144.172 144.12ZM157.217 130H158.697V144H157.217V130ZM167.852 130H173.552C175.032 130 176.339 130.3 177.472 130.9C178.605 131.487 179.485 132.313 180.112 133.38C180.739 134.433 181.052 135.64 181.052 137C181.052 138.36 180.739 139.573 180.112 140.64C179.485 141.693 178.605 142.52 177.472 143.12C176.339 143.707 175.032 144 173.552 144H167.852V130ZM173.472 142.72C174.699 142.72 175.772 142.48 176.692 142C177.612 141.507 178.325 140.833 178.832 139.98C179.339 139.113 179.592 138.12 179.592 137C179.592 135.88 179.339 134.893 178.832 134.04C178.325 133.173 177.612 132.5 176.692 132.02C175.772 131.527 174.699 131.28 173.472 131.28H169.332V142.72H173.472ZM198.875 142.72V144H188.975V130H198.575V131.28H190.455V136.26H197.695V137.52H190.455V142.72H198.875ZM218.654 130V144H217.434L208.434 132.64V144H206.954V130H208.174L217.194 141.36V130H218.654ZM233.904 144.12C232.517 144.12 231.264 143.813 230.144 143.2C229.037 142.587 228.164 141.74 227.524 140.66C226.897 139.567 226.584 138.347 226.584 137C226.584 135.653 226.897 134.44 227.524 133.36C228.164 132.267 229.044 131.413 230.164 130.8C231.284 130.187 232.537 129.88 233.924 129.88C234.964 129.88 235.924 130.053 236.804 130.4C237.684 130.747 238.43 131.253 239.044 131.92L238.104 132.86C237.01 131.753 235.63 131.2 233.964 131.2C232.857 131.2 231.85 131.453 230.944 131.96C230.037 132.467 229.324 133.16 228.804 134.04C228.297 134.92 228.044 135.907 228.044 137C228.044 138.093 228.297 139.08 228.804 139.96C229.324 140.84 230.037 141.533 230.944 142.04C231.85 142.547 232.857 142.8 233.964 142.8C235.644 142.8 237.024 142.24 238.104 141.12L239.044 142.06C238.43 142.727 237.677 143.24 236.784 143.6C235.904 143.947 234.944 144.12 233.904 144.12ZM256.699 142.72V144H246.799V130H256.399V131.28H248.279V136.26H255.519V137.52H248.279V142.72H256.699Z" fill="#B69252"/>
<line x1="51" y1="136.5" x2="83" y2="136.5" stroke="#B69252"/>
<line x1="277" y1="136.5" x2="309" y2="136.5" stroke="#B69252"/>
</svg>
